<?xml version="1.0" encoding="utf-8"?>
<svg version="1.1" xmlns="http://www.w3.org/2000/svg" xmlns:xlink="http://www.w3.org/1999/xlink" height="17.571410475647554" width="20">
  <defs>
    <path id="path-1" opacity="1" fill-rule="evenodd" d="M0.748663101604278,-2.842170943040401e-14 L19.25133689839572,-2.842170943040401e-14 C19.664535312299463,-2.842170943040401e-14 20,0.48345960748878875 20,1.0789462572765993 C20,1.6744329070644097 19.664535312299463,2.157892514553227 19.25133689839572,2.157892514553227 L0.748663101604278,2.157892514553227 C0.33546468770053484,2.157892514553227 0,1.6744329070644097 0,1.0789462572765993 "/>
    <path id="path-2" opacity="1" fill-rule="evenodd" d="M0.748663101604278,7.706758980547168 L19.25133689839572,7.706758980547168 C19.664535312299463,7.706758980547168 20,8.19021858803597 20,8.785705237823764 C20,9.381191887611557 19.664535312299463,9.864651495100361 19.25133689839572,9.864651495100361 L0.748663101604278,9.864651495100361 C0.33546468770053484,9.864651495100361 0,9.381191887611557 0,8.785705237823764 "/>
    <path id="path-3" opacity="1" fill-rule="evenodd" d="M0.748663101604278,15.413517961094328 L19.25133689839572,15.413517961094328 C19.664535312299463,15.413517961094328 20,15.896977568583143 20,16.492464218370948 C20,17.087950868158753 19.664535312299463,17.571410475647568 19.25133689839572,17.571410475647568 L0.748663101604278,17.571410475647568 C0.33546468770053484,17.571410475647568 0,17.087950868158753 0,16.492464218370948 "/>
  </defs>
  <g opacity="1">
    <g opacity="1">
      <use xlink:href="#path-1" fill="rgb(255,255,255)" fill-opacity="1"/>
    </g>
    <g opacity="1">
      <use xlink:href="#path-2" fill="rgb(255,255,255)" fill-opacity="1"/>
    </g>
    <g opacity="1">
      <use xlink:href="#path-3" fill="rgb(255,255,255)" fill-opacity="1"/>
    </g>
  </g>
</svg>